# xmcd
#
# Track frame offsets: 
#        150
#        19190
#        41362
#        59237
#        78920
#        96420
#        117012
#        136077
#        154070
#        172202
#        192850
#        213567
#        234440
#        252687
#        274365
#        292940
#        314137
#
# Disc length: 4435 seconds
#
# Revision: 2
# Processed by: cddbd v1.5.2PL0 Copyright (c) Steve Scherf et al.
# Submitted via: ExactAudioCopy v0.99pb5
#
DISCID=02115111
DTITLE=Various Artist - 연가
DYEAR=2001
DGENRE=Pop
TTITLE0=GOD_사랑해 그리고 기억해
TTITLE1=김범수_약속
TTITLE2=DJ DOC_그녀의 속눈썹은 길다
TTITLE3=임재범_사랑보다 깊은 상처
TTITLE4=터보_회상
TTITLE5=SKY_영원
TTITLE6=주영훈_노을의 연가
TTITLE7=야다_이미 슬픈 사랑
TTITLE8=이승훈_비오는 거리
TTITLE9=이은미_기억속으로
TTITLE10=유리상자_순애보
TTITLE11=CAN_천상연
TTITLE12=조규만_다 줄거야
TTITLE13=이수영_I believe
TTITLE14=J_어제처럼
TTITLE15=김종환_존재의 이유
TTITLE16=이현우_헤어진 다음날
EXTD=YEAR: 2001  ID3G:  13
EXTT0=
EXTT1=
EXTT2=
EXTT3=
EXTT4=
EXTT5=
EXTT6=
EXTT7=
EXTT8=
EXTT9=
EXTT10=
EXTT11=
EXTT12=
EXTT13=
EXTT14=
EXTT15=
EXTT16=
PLAYORDER=
